<svg xmlns="http://www.w3.org/2000/svg" version="1.1" xmlns:xlink="http://www.w3.org/1999/xlink" xmlns:svgjs="http://svgjs.dev/svgjs" width="1500" height="1500" viewBox="0 0 1500 1500"><rect width="1500" height="1500" fill="#d4f3c3"></rect><g transform="matrix(0.6666666666666666,0,0,0.6666666666666666,249.3946230786322,411.9318741953281)"><svg viewBox="0 0 396 267" data-background-color="#d4f3c3" preserveAspectRatio="xMidYMid meet" height="1011" width="1500" xmlns="http://www.w3.org/2000/svg" xmlns:xlink="http://www.w3.org/1999/xlink"><g id="tight-bounds" transform="matrix(1,0,0,1,0.2402707391382819,0.42312995526322084)"><svg viewBox="0 0 395.52 266.15374008947356" height="266.15374008947356" width="395.52"><g><svg viewBox="0 0 395.52 266.15374008947356" height="266.15374008947356" width="395.52"><g transform="matrix(1,0,0,1,0,174.88407213396655)"><svg viewBox="0 0 395.52 91.26966795550703" height="91.26966795550703" width="395.52"><g id="textblocktransform"><svg viewBox="0 0 395.52 91.26966795550703" height="91.26966795550703" width="395.52" id="textblock"><g><svg viewBox="0 0 395.52 77.74458299102199" height="77.74458299102199" width="395.52"><g transform="matrix(1,0,0,1,0,0)"><svg width="395.52" viewBox="1.3710814676646008 -36.82888453343408 272.5853559436129 53.580182793970415" height="77.74458299102199" data-palette-color="#2bb146"><path d="M4.101 12.096v0c0.119-0.459 0.237-0.969 0.356-1.53 0.125-0.562 0.221-1.166 0.289-1.812v0l0.33-1.709c-0.374-0.374-0.759-0.783-1.154-1.227-0.395-0.444-0.766-0.904-1.113-1.377-0.348-0.481-0.65-0.968-0.905-1.461-0.257-0.499-0.434-0.994-0.533-1.484v0c-0.007-0.033 0.112-0.087 0.355-0.163 0.243-0.076 0.55-0.158 0.92-0.246 0.37-0.088 0.773-0.182 1.208-0.283 0.437-0.094 0.844-0.183 1.221-0.266 0.371-0.081 0.68-0.153 0.926-0.216 0.247-0.056 0.371-0.085 0.37-0.085v0c0.174-1.028 0.351-2.009 0.532-2.942 0.173-0.932 0.348-1.872 0.525-2.819 0.177-0.947 0.346-1.916 0.508-2.906 0.169-0.986 0.325-2.041 0.466-3.164v0c0.269-2.114 0.574-3.984 0.914-5.61 0.333-1.624 0.651-3.14 0.953-4.547v0c0.034-0.17 0.112-0.339 0.235-0.506 0.123-0.167 0.263-0.315 0.421-0.441 0.157-0.133 0.31-0.249 0.461-0.348 0.157-0.099 0.281-0.175 0.373-0.228v0c0.056-0.025 0.284-0.145 0.682-0.361 0.4-0.209 0.857-0.441 1.37-0.693 0.514-0.253 1.024-0.488 1.531-0.705 0.514-0.219 0.931-0.36 1.251-0.425v0l0.431-0.087c0.255-0.051 0.509-0.041 0.761 0.031 0.259 0.07 0.463 0.274 0.613 0.612v0c1.158 1.807 2.405 3.784 3.74 5.929 1.335 2.146 2.699 4.534 4.091 7.165v0c0.745 1.408 1.468 2.738 2.168 3.992 0.7 1.253 1.394 2.474 2.082 3.661 0.687 1.188 1.379 2.378 2.073 3.572 0.694 1.187 1.409 2.41 2.145 3.67v0c0.259 0.546 0.498 0.971 0.714 1.274 0.219 0.31 0.412 0.546 0.581 0.709 0.162 0.165 0.292 0.285 0.389 0.361 0.102 0.068 0.163 0.151 0.183 0.249v0c0.018 0.092-0.116 0.217-0.404 0.377v0l-4.801 2.708c-0.357 0.221-0.72 0.444-1.09 0.667-0.37 0.224-0.72 0.427-1.051 0.609-0.324 0.181-0.613 0.334-0.866 0.46-0.247 0.124-0.426 0.198-0.537 0.22v0l-0.147 0.029c-0.222 0.045-0.393 0.007-0.512-0.111-0.126-0.118-0.217-0.235-0.275-0.353v0c-0.263-0.498-0.518-0.94-0.766-1.325-0.242-0.393-0.481-0.787-0.717-1.182-0.241-0.387-0.485-0.807-0.732-1.26-0.246-0.447-0.507-0.983-0.782-1.608v0c-0.048-0.072-0.15-0.123-0.306-0.153-0.154-0.023-0.333-0.032-0.535-0.025-0.209 0.008-0.426 0.031-0.649 0.069-0.224 0.038-0.43 0.076-0.62 0.114v0c-0.608 0.122-1.097 0.224-1.469 0.306-0.378 0.083-0.71 0.156-0.996 0.22-0.286 0.064-0.559 0.129-0.817 0.195-0.26 0.059-0.583 0.127-0.969 0.204v0c-0.458 0.092-0.932 0.184-1.424 0.276-0.486 0.084-0.93 0.16-1.331 0.227v0l-1.373 0.224c-0.187 1.234-0.386 2.396-0.595 3.486-0.218 1.084-0.457 2.21-0.719 3.377v0c-0.008 0.131-0.062 0.25-0.163 0.359-0.102 0.102-0.218 0.166-0.349 0.193v0c-0.098 0.02-0.156 0.021-0.173 0.004v0c-1.661-0.245-3.072-0.532-4.232-0.864-1.161-0.331-2.182-0.674-3.063-1.027zM15.901-12.651v0c-0.094 1.494-0.215 2.858-0.362 4.091-0.14 1.232-0.277 2.327-0.411 3.285-0.129 0.951-0.243 1.755-0.342 2.415-0.099 0.659-0.163 1.168-0.193 1.528v0l0.042 0.206c0.02 0.098 0.023 0.165 0.01 0.202v0l5.745-1.154c-0.334-0.749-0.679-1.502-1.035-2.26-0.363-0.757-0.727-1.554-1.093-2.392-0.365-0.838-0.747-1.74-1.145-2.708-0.392-0.969-0.797-2.04-1.216-3.213zM52.844-12.315l-0.033-0.359c-0.213-0.346-0.49-0.692-0.832-1.039-0.34-0.34-0.719-0.645-1.137-0.913-0.417-0.268-0.859-0.472-1.324-0.612-0.465-0.133-0.938-0.164-1.419-0.092v0c-0.659 0.098-1.239 0.464-1.737 1.098-0.499 0.634-0.895 1.437-1.189 2.411-0.3 0.975-0.488 2.064-0.565 3.269-0.077 1.204-0.022 2.433 0.164 3.685v0c0.115 0.772 0.292 1.49 0.533 2.156 0.239 0.659 0.54 1.227 0.901 1.706 0.367 0.471 0.803 0.824 1.31 1.058 0.5 0.236 1.073 0.305 1.719 0.21v0c0.963-0.143 1.805-0.575 2.527-1.296 0.714-0.726 1.28-1.613 1.697-2.659v0c-0.037-0.338-0.074-0.744-0.11-1.217-0.037-0.473-0.081-1.046-0.134-1.719-0.046-0.674-0.101-1.471-0.164-2.392-0.063-0.921-0.132-2.019-0.207-3.295zM60.607-23.61v0c0.191-0.076 0.366-0.125 0.524-0.149v0c0.501-0.075 0.798 0.201 0.891 0.828v0c0.013 0.086 0.025 0.165 0.036 0.238 0.01 0.066 0.012 0.15 0.007 0.251v0l1.869 33.914c-0.012 0.056-0.009 0.146 0.01 0.272v0c0.01 0.066 0.021 0.121 0.035 0.166 0.021 0.051 0.034 0.093 0.039 0.126v0c0.022 0.145-0.014 0.268-0.107 0.37-0.093 0.101-0.348 0.241-0.767 0.417v0l-6.051 3.296c-0.171 0.073-0.391 0.183-0.658 0.331-0.274 0.149-0.55 0.244-0.827 0.284v0c-0.224 0.033-0.432 0.017-0.624-0.048-0.193-0.072-0.308-0.237-0.347-0.495v0c-0.015-0.099-0.016-0.173-0.002-0.222v0c0.003-0.068-0.006-0.292-0.03-0.673-0.024-0.387-0.055-0.868-0.093-1.442-0.033-0.582-0.072-1.233-0.119-1.953-0.041-0.729-0.087-1.47-0.138-2.224-0.059-0.76-0.109-1.504-0.15-2.232-0.04-0.722-0.08-1.373-0.119-1.954-0.038-0.574-0.069-1.055-0.093-1.442-0.023-0.381-0.033-0.605-0.029-0.673v0c-1.039 0.943-2.116 1.767-3.232 2.472-1.109 0.697-2.268 1.136-3.474 1.315v0c-1.662 0.247-3.146 0.121-4.454-0.378-1.307-0.493-2.437-1.248-3.391-2.266-0.96-1.016-1.737-2.232-2.331-3.647-0.602-1.42-1.021-2.925-1.258-4.514v0c-0.189-1.273-0.26-2.566-0.213-3.881 0.041-1.314 0.203-2.598 0.488-3.854 0.279-1.248 0.682-2.437 1.208-3.566 0.52-1.129 1.165-2.138 1.936-3.028 0.777-0.891 1.671-1.634 2.681-2.229 1.018-0.589 2.16-0.978 3.426-1.166v0c1.418-0.211 2.749-0.122 3.992 0.265 1.244 0.388 2.423 0.971 3.536 1.749v0c-0.01-0.295-0.018-0.53-0.024-0.704-0.012-0.173 0.008-0.311 0.06-0.413 0.051-0.109 0.149-0.197 0.294-0.267 0.144-0.075 0.356-0.164 0.638-0.266v0c0.173-0.059 0.486-0.177 0.938-0.352 0.446-0.174 0.981-0.382 1.606-0.623 0.625-0.241 1.311-0.498 2.059-0.771 0.747-0.28 1.5-0.567 2.258-0.862zM93.877-26.655l0.016 24.071c0.006 0.542-0.022 0.916-0.082 1.123-0.06 0.213-0.226 0.367-0.498 0.46v0c-1.336 0.518-2.735 1.048-4.197 1.591-1.461 0.543-2.864 1.204-4.208 1.984v0c-0.045 0.024-0.117 0.041-0.216 0.051v0c-0.133 0.013-0.212-0.013-0.239-0.077-0.033-0.064-0.053-0.136-0.061-0.216v0c-0.003-0.033-0.005-0.09-0.006-0.17-0.001-0.08 0.004-0.232 0.016-0.453 0.012-0.222 0.029-0.532 0.051-0.93 0.016-0.39 0.042-0.915 0.079-1.574v0c-1.697 1.356-3.22 2.374-4.568 3.053-1.354 0.68-2.572 1.072-3.653 1.177v0c-2.707 0.262-4.741-0.201-6.102-1.389-1.367-1.181-2.175-3.065-2.425-5.653v0c-0.046-0.471-0.082-0.957-0.111-1.456-0.034-0.492-0.036-1.001-0.007-1.527v0c-0.006-1.928-0.008-3.583-0.008-4.962-0.007-1.386-0.016-2.56-0.029-3.523-0.012-0.957-0.018-1.743-0.017-2.36 0.001-0.616 0.001-1.129 0.002-1.537 0.001-0.409-0.002-0.747-0.007-1.014 0.001-0.268 0.005-0.533 0.013-0.795v0c0.016-0.524 0.041-0.895 0.074-1.112 0.039-0.218 0.209-0.372 0.508-0.461v0c0.749-0.22 1.462-0.426 2.14-0.619 0.672-0.186 1.34-0.381 2.003-0.585 0.657-0.198 1.326-0.413 2.007-0.647 0.681-0.227 1.399-0.49 2.154-0.79v0c0.033-0.003 0.066-0.013 0.098-0.03 0.026-0.009 0.055-0.015 0.088-0.019v0c0.199-0.019 0.305 0.037 0.318 0.171v0l0.005 0.049c-0.014 0.551-0.02 1.074-0.019 1.569-0.006 0.49-0.008 0.992-0.005 1.508 0.003 0.515 0.003 1.068-0.001 1.658-0.004 0.583-0.008 1.263-0.013 2.04-0.005 0.777-0.016 1.673-0.032 2.686-0.015 1.02-0.038 2.201-0.07 3.543v0c-0.006 0.978-0.012 1.957-0.017 2.935 0 0.971 0.04 1.868 0.119 2.691v0c0.044 0.458 0.115 0.873 0.211 1.246 0.103 0.372 0.253 0.682 0.452 0.931 0.192 0.256 0.435 0.444 0.727 0.562 0.286 0.12 0.648 0.158 1.086 0.116v0c0.338-0.033 0.792-0.157 1.361-0.372 0.569-0.209 1.127-0.531 1.675-0.966 0.547-0.435 1.013-0.985 1.397-1.652 0.384-0.667 0.563-1.481 0.538-2.443v0c-0.042-1.617-0.072-2.967-0.09-4.05-0.011-1.084-0.019-1.997-0.024-2.741-0.012-0.749-0.016-1.375-0.011-1.877-0.002-0.509-0.006-0.994-0.01-1.456-0.005-0.468-0.016-0.966-0.034-1.494-0.018-0.534-0.049-1.198-0.092-1.99v0c-0.006-0.542 0.019-0.916 0.073-1.122 0.053-0.213 0.223-0.363 0.508-0.451v0c1.445-0.434 2.923-0.875 4.434-1.323 1.51-0.454 2.979-0.985 4.407-1.591v0c0.126-0.012 0.204 0 0.235 0.037 0.03 0.037 0.049 0.096 0.057 0.175zM125.027-28.691l-1.477 22.831c-0.01 0.067-0.014 0.131-0.011 0.191 0.002 0.053 0.005 0.107 0.007 0.16v0c0.019 0.406 0.097 0.74 0.236 1 0.145 0.26 0.299 0.473 0.46 0.64 0.161 0.159 0.31 0.289 0.448 0.389 0.131 0.101 0.199 0.191 0.203 0.271v0c0.011 0.233-0.223 0.457-0.7 0.673v0l-6.425 3.097c-0.019 0.021-0.075 0.033-0.169 0.038v0c-0.133 0.006-0.268-0.101-0.405-0.322-0.144-0.22-0.283-0.504-0.419-0.851-0.136-0.341-0.266-0.709-0.391-1.104-0.125-0.395-0.235-0.76-0.331-1.096v0c-0.971 1.232-2.037 2.152-3.197 2.76-1.16 0.607-2.326 0.937-3.498 0.991v0c-1.365 0.063-2.711-0.176-4.037-0.716-1.333-0.546-2.528-1.352-3.584-2.419-1.057-1.066-1.927-2.374-2.613-3.925-0.678-1.544-1.062-3.302-1.152-5.272v0c-0.106-2.324 0.133-4.461 0.717-6.41 0.585-1.949 1.425-3.639 2.521-5.071 1.089-1.431 2.382-2.562 3.879-3.391 1.504-0.823 3.118-1.274 4.843-1.353v0c1.219-0.056 2.382 0.138 3.49 0.581 1.115 0.443 2.176 1.035 3.185 1.777v0c0.077-0.497 0.116-0.893 0.116-1.187 0.007-0.287 0.033-0.515 0.079-0.684 0.053-0.163 0.157-0.278 0.314-0.345 0.164-0.061 0.432-0.117 0.803-0.167v0c1.158-0.22 2.316-0.423 3.476-0.61 1.152-0.193 2.363-0.352 3.632-0.476zM115.149-7.447l0.698-7.27c0.117-0.933 0.187-1.81 0.21-2.632 0.016-0.822 0.025-1.576 0.026-2.264v0c-0.269-0.181-0.558-0.372-0.867-0.571-0.309-0.193-0.644-0.374-1.006-0.544-0.355-0.171-0.728-0.307-1.12-0.409-0.385-0.096-0.787-0.134-1.206-0.115v0c-0.879 0.04-1.602 0.36-2.169 0.96-0.567 0.593-1.014 1.314-1.342 2.164-0.328 0.843-0.548 1.73-0.659 2.663-0.111 0.933-0.15 1.759-0.117 2.478v0c0.117 2.564 0.54 4.43 1.268 5.597 0.727 1.161 1.694 1.714 2.899 1.66v0c0.486-0.022 1.023-0.184 1.609-0.485 0.593-0.307 1.185-0.718 1.776-1.232zM129.359-1.358l-0.424-8.709c0-0.013-0.007-0.03-0.02-0.05-0.007-0.013-0.01-0.03-0.01-0.05v0c0-0.273 0.146-0.41 0.44-0.411v0c0.147 0 0.31 0.073 0.49 0.219v0c0.881 0.825 1.859 1.484 2.933 1.976 1.074 0.485 2.244 0.727 3.511 0.725v0c0.34-0.001 0.73-0.038 1.17-0.112 0.44-0.074 0.856-0.198 1.249-0.372 0.386-0.167 0.716-0.391 0.989-0.672 0.266-0.274 0.399-0.624 0.399-1.05v0c-0.001-0.473-0.115-0.896-0.342-1.27-0.234-0.373-0.538-0.689-0.912-0.948v0c-0.147-0.1-0.367-0.263-0.66-0.489-0.287-0.226-0.621-0.486-1.002-0.779-0.374-0.293-0.764-0.606-1.171-0.938-0.407-0.333-0.794-0.649-1.161-0.948-0.367-0.299-0.694-0.572-0.982-0.819-0.294-0.24-0.514-0.426-0.661-0.559v0c-0.961-0.712-1.726-1.434-2.293-2.166-0.561-0.732-0.989-1.495-1.283-2.288-0.295-0.8-0.482-1.626-0.564-2.479-0.081-0.853-0.123-1.76-0.124-2.72v0c-0.002-1.433 0.339-2.794 1.024-4.082 0.678-1.281 1.64-2.399 2.884-3.354 1.239-0.955 2.727-1.714 4.467-2.277 1.746-0.563 3.682-0.846 5.809-0.849v0c0.26 0 0.65 0.026 1.17 0.078 0.527 0.059 1.1 0.152 1.72 0.278 0.627 0.132 1.267 0.311 1.921 0.537 0.654 0.226 1.247 0.518 1.781 0.877v0c0.18 0.126 0.324 0.256 0.431 0.389 0.107 0.127 0.177 0.33 0.211 0.61v0c0.082 1.313 0.147 2.61 0.196 3.89 0.049 1.28 0.117 2.633 0.206 4.059v0c0 0.28-0.056 0.463-0.169 0.551-0.12 0.094-0.266 0.14-0.44 0.14v0c-0.18 0-0.32-0.05-0.42-0.149v0c-0.474-0.473-0.961-0.935-1.462-1.388-0.507-0.453-1.038-0.855-1.592-1.207-0.554-0.346-1.144-0.625-1.771-0.838-0.627-0.212-1.307-0.318-2.041-0.316v0c-0.433 0.001-0.87 0.038-1.31 0.112-0.44 0.074-0.84 0.208-1.199 0.401-0.36 0.201-0.649 0.471-0.869 0.812-0.213 0.34-0.319 0.77-0.318 1.29v0c0.001 0.553 0.068 1.033 0.202 1.44 0.141 0.406 0.488 0.789 1.042 1.148v0l5.866 3.971c1.074 0.758 1.946 1.517 2.614 2.276 0.668 0.752 1.189 1.505 1.563 2.258 0.374 0.746 0.632 1.482 0.773 2.209 0.141 0.72 0.212 1.43 0.214 2.129v0c0.002 1.14-0.187 2.214-0.565 3.221-0.372 1.007-0.88 1.941-1.526 2.803-0.652 0.854-1.411 1.619-2.277 2.293-0.872 0.675-1.805 1.253-2.797 1.734-0.993 0.482-2.022 0.85-3.088 1.105-1.06 0.255-2.103 0.383-3.13 0.385v0c-0.8 0.001-1.587-0.011-2.36-0.037-0.773-0.019-1.523-0.081-2.25-0.186-0.734-0.106-1.444-0.268-2.131-0.487-0.68-0.219-1.331-0.525-1.951-0.917zM153.993-12.741v0c0.092-2.131 0.571-4.109 1.437-5.934 0.873-1.824 2.032-3.399 3.477-4.724 1.451-1.319 3.14-2.337 5.066-3.055 1.932-0.711 4.011-1.018 6.235-0.923v0c1.512 0.065 2.799 0.241 3.861 0.527 1.062 0.293 1.929 0.604 2.602 0.933 0.666 0.329 1.154 0.627 1.463 0.894 0.302 0.267 0.453 0.407 0.453 0.42v0c-0.004 0.1-0.053 0.371-0.146 0.814-0.092 0.443-0.195 0.959-0.307 1.548-0.119 0.589-0.228 1.195-0.328 1.818-0.1 0.623-0.16 1.161-0.18 1.614v0c-0.004 0.087-0.031 0.175-0.081 0.266-0.051 0.098-0.183 0.142-0.396 0.134v0c-0.193-0.008-0.473-0.09-0.841-0.247-0.367-0.156-0.82-0.326-1.359-0.509-0.539-0.183-1.159-0.36-1.859-0.53-0.7-0.17-1.483-0.274-2.349-0.312v0c-1.072-0.046-2.046 0.102-2.921 0.445-0.876 0.349-1.638 0.847-2.287 1.493-0.648 0.646-1.159 1.425-1.532 2.336-0.373 0.918-0.583 1.913-0.629 2.986v0c-0.048 1.119 0.087 2.079 0.406 2.88 0.312 0.808 0.751 1.47 1.316 1.988 0.565 0.525 1.222 0.917 1.971 1.176 0.756 0.259 1.557 0.407 2.403 0.444v0c0.972 0.042 1.961-0.049 2.965-0.272 1.004-0.23 1.956-0.57 2.856-1.018v0c0.034-0.012 0.097-0.016 0.191-0.012v0c0.087 0.004 0.148 0.046 0.185 0.128 0.037 0.082 0.05 0.236 0.04 0.462v0c-0.022 0.52-0.05 1.149-0.082 1.888-0.032 0.739-0.066 1.449-0.101 2.128-0.042 0.672-0.08 1.244-0.114 1.717-0.034 0.472-0.061 0.708-0.081 0.707v0c-0.603 0.361-1.249 0.65-1.939 0.867-0.696 0.21-1.407 0.373-2.133 0.489-0.732 0.115-1.466 0.184-2.201 0.205-0.735 0.015-1.442 0.008-2.121-0.021v0c-1.905-0.082-3.663-0.475-5.274-1.178-1.611-0.703-2.998-1.661-4.16-2.872-1.163-1.204-2.059-2.631-2.688-4.28-0.63-1.649-0.902-3.455-0.818-5.42zM202.727-25.154l-2.133 7.418c-0.336-0.061-0.715-0.13-1.137-0.205-0.415-0.081-0.858-0.142-1.329-0.181v0c-0.711-0.059-1.44-0.056-2.189 0.009-0.747 0.058-1.455 0.24-2.122 0.546-0.66 0.3-1.243 0.743-1.746 1.329-0.504 0.587-0.863 1.37-1.079 2.349v0c-0.213 1.193-0.388 2.172-0.525 2.937-0.137 0.765-0.243 1.391-0.318 1.88-0.075 0.496-0.134 0.892-0.179 1.189-0.051 0.297-0.095 0.574-0.129 0.832v0c-0.006 0.066-0.034 0.245-0.085 0.535-0.05 0.283-0.115 0.619-0.194 1.007-0.079 0.388-0.157 0.806-0.235 1.255-0.084 0.448-0.166 0.866-0.245 1.254-0.079 0.381-0.143 0.717-0.194 1.007-0.051 0.29-0.079 0.468-0.085 0.535v0c-0.011 0.133-0.014 0.243-0.007 0.331-0.001 0.087-0.004 0.174-0.012 0.26v0c-0.011 0.126-0.079 0.231-0.207 0.314-0.133 0.076-0.414 0.153-0.842 0.231v0l-6.64 1.775c-0.185 0.051-0.427 0.112-0.728 0.18-0.301 0.075-0.587 0.102-0.859 0.079v0c-0.226-0.019-0.42-0.092-0.584-0.219-0.157-0.127-0.223-0.33-0.2-0.609v0l4.089-23.923c0.098-0.534 0.192-0.897 0.281-1.09 0.09-0.2 0.284-0.318 0.582-0.353v0c1.499-0.17 3.045-0.339 4.638-0.507 1.6-0.175 3.157-0.433 4.67-0.776v0c0.133 0.011 0.208 0.037 0.224 0.079 0.023 0.042 0.032 0.103 0.025 0.183v0c-0.003 0.033-0.01 0.083-0.022 0.149-0.012 0.059-0.05 0.203-0.116 0.431-0.059 0.223-0.144 0.56-0.255 1.013-0.112 0.459-0.265 1.095-0.46 1.908v0c0.793-0.523 1.661-0.989 2.605-1.398 0.937-0.41 1.875-0.75 2.814-1.02 0.933-0.277 1.829-0.48 2.69-0.609 0.861-0.136 1.607-0.177 2.238-0.125zM202.396-7.935v0c0.461-2.189 0.919-4.355 1.375-6.497 0.449-2.143 0.885-4.345 1.307-6.606v0c0.093-0.533 0.188-0.895 0.283-1.085 0.096-0.197 0.293-0.309 0.592-0.336v0c1.403-0.124 2.873-0.25 4.41-0.379 1.537-0.129 3.035-0.35 4.492-0.662v0c0.054-0.007 0.128-0.006 0.221 0.005v0c0.179 0.02 0.261 0.093 0.247 0.219v0l-4.844 23.375c-0.107 0.531-0.204 0.893-0.293 1.084-0.083 0.199-0.273 0.311-0.572 0.338v0c-1.426 0.269-2.87 0.583-4.332 0.941-1.463 0.359-3.009 0.715-4.638 1.068v0c-0.049 0.015-0.123 0.016-0.222 0.006v0c-0.179-0.02-0.259-0.113-0.241-0.279v0c0.001-0.013 0.042-0.227 0.123-0.64 0.081-0.42 0.185-0.959 0.312-1.615 0.134-0.656 0.281-1.391 0.439-2.205 0.153-0.821 0.312-1.639 0.477-2.452 0.166-0.82 0.325-1.604 0.476-2.352 0.152-0.754 0.281-1.397 0.388-1.928zM206.392-27.079v0c0.131-0.69 0.228-1.219 0.289-1.587 0.068-0.368 0.119-0.644 0.154-0.828 0.041-0.183 0.064-0.301 0.07-0.355 0.005-0.046 0.013-0.082 0.022-0.108 0.009-0.019 0.021-0.065 0.035-0.137 0.021-0.071 0.052-0.226 0.093-0.462 0.046-0.23 0.108-0.568 0.184-1.016 0.085-0.453 0.204-1.071 0.36-1.852v0c0.093-0.533 0.188-0.895 0.283-1.085 0.096-0.197 0.293-0.312 0.592-0.346v0c1.402-0.117 2.872-0.24 4.409-0.369 1.537-0.129 3.038-0.349 4.502-0.661v0c0.049-0.015 0.119-0.017 0.212-0.006v0c0.042 0.105 0.101 0.179 0.177 0.221v0l0.064 0.057-1.274 6.579c-0.113 0.531-0.218 0.898-0.315 1.102-0.096 0.197-0.283 0.307-0.56 0.329v0c-1.407 0.103-2.83 0.228-4.269 0.375-1.44 0.153-2.961 0.294-4.566 0.423v0c-0.048 0.008-0.121 0.006-0.221-0.005v0c-0.179-0.02-0.259-0.11-0.241-0.269zM228.471-11.566l-2.198 9.235c0.11 0.347 0.288 0.707 0.535 1.082 0.247 0.374 0.548 0.73 0.901 1.066 0.355 0.33 0.753 0.616 1.196 0.857 0.436 0.241 0.904 0.399 1.405 0.475v0c0.692 0.104 1.386-0.068 2.08-0.517 0.694-0.448 1.338-1.093 1.929-1.934 0.598-0.84 1.114-1.825 1.547-2.953 0.433-1.128 0.743-2.319 0.932-3.571v0c0.116-0.771 0.157-1.514 0.122-2.227-0.034-0.713-0.158-1.348-0.37-1.906-0.213-0.558-0.524-1.023-0.933-1.394-0.415-0.379-0.942-0.617-1.582-0.714v0c-1.048-0.158-2.054 0.005-3.016 0.487-0.962 0.482-1.812 1.153-2.548 2.013zM215.931 5.376v0c-0.231 0.012-0.413 0.009-0.544-0.011v0c-0.514-0.077-0.725-0.423-0.633-1.036v0c0.012-0.079 0.027-0.158 0.045-0.235 0.025-0.077 0.052-0.164 0.08-0.261v0l7.936-33.725c0.007-0.046 0.018-0.095 0.032-0.147 0.014-0.045 0.023-0.084 0.028-0.117v0c0.01-0.066 0.015-0.122 0.015-0.17 0-0.047 0.003-0.087 0.008-0.12v0c0.022-0.145 0.092-0.256 0.212-0.332 0.118-0.07 0.404-0.128 0.856-0.175v0l7.017-0.602c0.183-0.006 0.428-0.043 0.735-0.112 0.307-0.068 0.599-0.082 0.876-0.04v0c0.204 0.031 0.391 0.109 0.561 0.236 0.17 0.127 0.234 0.325 0.194 0.595v0c-0.005 0.033-0.013 0.065-0.025 0.098-0.012 0.032-0.02 0.064-0.025 0.097v0c-0.025 0.077-0.118 0.424-0.278 1.04-0.16 0.616-0.347 1.367-0.561 2.252-0.213 0.878-0.446 1.821-0.698 2.827-0.253 1.007-0.485 1.949-0.699 2.828-0.214 0.885-0.401 1.635-0.561 2.251-0.16 0.616-0.253 0.963-0.278 1.041v0c1.29-0.595 2.6-1.058 3.931-1.391 1.338-0.331 2.633-0.403 3.885-0.214v0c1.655 0.249 3.037 0.804 4.148 1.665 1.103 0.867 1.962 1.927 2.576 3.179 0.62 1.253 1.007 2.649 1.159 4.189 0.154 1.533 0.112 3.088-0.125 4.664v0c-0.191 1.272-0.499 2.531-0.922 3.774-0.423 1.244-0.944 2.42-1.562 3.527-0.625 1.106-1.348 2.126-2.169 3.061-0.821 0.928-1.719 1.703-2.696 2.325-0.971 0.629-2.02 1.081-3.147 1.357-1.127 0.275-2.31 0.32-3.55 0.134v0c-1.496-0.225-2.815-0.761-3.955-1.607-1.14-0.846-2.162-1.873-3.065-3.08v0c-0.091 0.384-0.161 0.687-0.208 0.909-0.053 0.221-0.132 0.385-0.236 0.49-0.111 0.111-0.261 0.19-0.45 0.236-0.182 0.047-0.457 0.083-0.825 0.108v0c-0.185 0.019-0.506 0.049-0.964 0.088-0.458 0.039-1.007 0.081-1.647 0.126-0.64 0.039-1.347 0.084-2.124 0.136-0.769 0.046-1.551 0.094-2.347 0.142zM265.618-14.929v0c1.516 0.305 2.835 0.863 3.958 1.674 1.121 0.817 2.035 1.766 2.742 2.847 0.701 1.08 1.178 2.223 1.431 3.43 0.259 1.215 0.275 2.381 0.05 3.499v0c-0.199 0.987-0.703 1.919-1.511 2.797-0.808 0.871-1.838 1.595-3.09 2.172-1.252 0.578-2.693 0.961-4.322 1.15-1.636 0.187-3.369 0.097-5.199-0.271v0c-0.961-0.193-1.947-0.494-2.96-0.902v0c-0.073 0.699 0.007 1.331 0.241 1.894 0.233 0.564 0.576 1.058 1.028 1.482 0.447 0.416 0.974 0.767 1.583 1.054 0.617 0.281 1.268 0.49 1.954 0.628v0c0.765 0.154 1.517 0.234 2.257 0.24 0.74 0.006 1.459-0.036 2.158-0.127 0.698-0.091 1.376-0.213 2.032-0.366 0.662-0.146 1.291-0.301 1.889-0.466v0c0.149 0.003 0.278 0.002 0.389-0.004 0.11-0.005 0.21 0.002 0.302 0.02v0c0 0-0.029 0.127-0.087 0.381-0.058 0.254-0.133 0.612-0.227 1.076-0.093 0.464-0.209 1.022-0.347 1.675-0.138 0.652-0.297 1.375-0.478 2.168v0c0.03 0.088 0.047 0.173 0.051 0.255-0.004 0.088-0.011 0.154-0.02 0.2v0c-0.038 0.19-0.253 0.361-0.644 0.513-0.399 0.158-0.906 0.297-1.522 0.418-0.611 0.129-1.301 0.231-2.072 0.307-0.77 0.076-1.549 0.13-2.338 0.162-0.788 0.032-1.543 0.029-2.263-0.007-0.727-0.038-1.352-0.109-1.874-0.214v0c-1.725-0.347-3.335-0.984-4.828-1.911-1.501-0.921-2.767-2.067-3.797-3.437-1.023-1.369-1.75-2.926-2.18-4.672-0.431-1.746-0.445-3.616-0.044-5.609v0c0.421-2.091 1.175-3.976 2.261-5.655 1.086-1.679 2.416-3.067 3.99-4.164 1.573-1.091 3.34-1.847 5.302-2.269 1.954-0.416 4.016-0.405 6.185 0.032zM264.053-8.624v0c-0.654-0.132-1.282-0.115-1.887 0.049-0.606 0.171-1.189 0.468-1.75 0.892-0.563 0.431-1.084 0.975-1.563 1.633-0.479 0.658-0.912 1.404-1.297 2.238v0c1.705 0.044 3.132 0.015 4.281-0.087 1.142-0.097 2.076-0.245 2.803-0.445 0.719-0.195 1.246-0.429 1.58-0.702 0.34-0.272 0.541-0.558 0.601-0.858v0c0.058-0.288 0.005-0.581-0.16-0.879-0.164-0.298-0.388-0.574-0.67-0.829-0.281-0.261-0.598-0.477-0.95-0.65-0.358-0.181-0.687-0.302-0.988-0.362z" opacity="1" transform="matrix(1,0,0,1,0,0)" fill="#2bb146" class="wordmark-text-0" data-fill-palette-color="primary" id="text-0"></path></svg></g></svg></g><g transform="matrix(1,0,0,1,118.31980799999998,85.26524340615636)"><svg viewBox="0 0 158.88038400000002 6.004424549350674" height="6.004424549350674" width="158.88038400000002"><g transform="matrix(1,0,0,1,0,0)"><svg width="158.88038400000002" viewBox="2.34 -39.65 1359.1000000000001 51.37" height="6.004424549350674" data-palette-color="#3aa93f"><path d="M24.68-25.63L24.32-18.46Q21.88-19.58 19.54-20.2 17.21-20.83 15.45-20.83L15.45-20.83Q13.6-20.83 12.82-20.47 12.04-20.12 12.04-19.24L12.04-19.24Q12.04-18.46 13.18-18.01 14.33-17.55 16.55-16.97L16.55-16.97Q18.77-16.38 20.53-15.67 22.29-14.97 23.52-13.92 24.76-12.87 25.4-11.4 26.05-9.94 26.05-7.81L26.05-7.81Q26.05-5.91 25.32-4.33 24.58-2.76 23.1-1.64 21.61-0.51 19.34 0.1 17.07 0.71 13.99 0.71L13.99 0.71Q11.25 0.71 8.5 0.31 5.74-0.1 2.93-1.12L2.93-1.12 2.93-8.67Q5.44-7.57 7.98-6.91 10.52-6.25 12.82-6.25L12.82-6.25Q16.94-6.25 16.94-7.96L16.94-7.96Q16.94-8.25 16.75-8.5 16.55-8.74 16.03-8.97 15.5-9.2 14.56-9.46 13.62-9.72 12.16-10.08L12.16-10.08Q10.13-10.57 8.34-11.34 6.54-12.11 5.21-13.22 3.88-14.33 3.11-15.82 2.34-17.31 2.34-19.21L2.34-19.21Q2.34-20.92 3.06-22.36 3.78-23.8 5.24-24.83 6.69-25.85 8.85-26.43 11.01-27 13.87-27L13.87-27Q15.53-27 17.05-26.86 18.58-26.71 19.95-26.5 21.31-26.29 22.5-26.06 23.68-25.83 24.68-25.63L24.68-25.63ZM31.98 0L31.98-26.34 42.65-26.34Q42.43-25.63 42.28-25.04 42.14-24.44 42.06-23.85 41.99-23.27 41.95-22.67 41.92-22.07 41.92-21.39L41.92-21.39Q42.58-22.49 43.63-23.51 44.68-24.54 45.98-25.31 47.29-26.07 48.76-26.54 50.24-27 51.76-27L51.76-27Q52.95-27 54.11-26.66 55.27-26.32 56.32-25.63 57.37-24.95 58.25-23.95 59.13-22.95 59.76-21.61L59.76-21.61Q60.52-22.78 61.73-23.77 62.94-24.76 64.4-25.48 65.87-26.2 67.51-26.6 69.16-27 70.8-27L70.8-27Q73.44-27 75.28-26.25 77.12-25.49 78.26-24.1 79.39-22.71 79.9-20.75 80.42-18.8 80.42-16.43L80.42-16.43 80.42 0 69.87 0 69.87-14.89Q69.87-15.6 69.71-16.52 69.55-17.43 69.11-18.25 68.67-19.07 67.91-19.63 67.14-20.19 65.89-20.19L65.89-20.19Q65.04-20.19 64.28-19.78 63.52-19.36 62.94-18.68 62.35-17.99 62.01-17.11 61.67-16.24 61.67-15.31L61.67-15.31 61.67 0 51.12 0 51.12-14.89Q51.12-15.89 50.94-16.85 50.75-17.8 50.31-18.54 49.88-19.29 49.12-19.74 48.36-20.19 47.21-20.19L47.21-20.19Q46.41-20.19 45.57-19.89 44.72-19.58 44.05-19.06 43.38-18.53 42.95-17.8 42.53-17.07 42.53-16.21L42.53-16.21 42.53 0 31.98 0ZM94.16 0.71L94.16 0.71Q92.6 0.71 91.17 0.27 89.74-0.17 88.64-1.07 87.54-1.98 86.9-3.36 86.25-4.74 86.25-6.62L86.25-6.62Q86.25-8.42 86.84-9.75 87.42-11.08 88.41-12.04 89.4-12.99 90.73-13.61 92.06-14.23 93.55-14.59 95.04-14.94 96.61-15.08 98.19-15.21 99.68-15.21L99.68-15.21Q100.7-15.21 101.66-15.16 102.61-15.11 103.44-15.04L103.44-15.04Q103.39-16.58 102.85-17.59 102.31-18.6 101.44-19.2 100.56-19.8 99.38-20.04 98.21-20.29 96.92-20.29L96.92-20.29Q95.72-20.29 94.47-20.13 93.21-19.97 92.01-19.74 90.82-19.51 89.73-19.24 88.64-18.97 87.81-18.75L87.81-18.75 87.81-25.59Q89.01-25.85 90.39-26.11 91.77-26.37 93.26-26.56 94.75-26.76 96.3-26.88 97.85-27 99.36-27L99.36-27Q101.24-27 103.06-26.77 104.88-26.54 106.5-26 108.12-25.46 109.5-24.56 110.88-23.66 111.87-22.33 112.86-21 113.42-19.19 113.98-17.38 113.98-15.01L113.98-15.01 113.98 0 103.93 0 103.93-4.37Q103.34-3.17 102.29-2.23 101.24-1.29 99.92-0.63 98.6 0.02 97.11 0.37 95.62 0.71 94.16 0.71ZM98.29-5.03L98.29-5.03Q98.97-5.03 99.86-5.41 100.75-5.79 101.55-6.57 102.34-7.35 102.89-8.54 103.44-9.74 103.44-11.4L103.44-11.4 102.63-11.4Q101.46-11.4 100.23-11.16 98.99-10.91 97.97-10.42 96.94-9.94 96.28-9.23 95.62-8.52 95.62-7.59L95.62-7.59Q95.62-6.86 95.87-6.37 96.11-5.88 96.49-5.58 96.87-5.27 97.35-5.15 97.82-5.03 98.29-5.03ZM121.06 0L121.06-26.34 131.1-26.34Q131.05-25.71 131.02-24.94 131-24.17 131-23.33 131-22.49 131-21.63 131-20.78 131-20L131-20Q131.49-21.19 132.27-22.45 133.05-23.71 134.11-24.71 135.17-25.71 136.53-26.35 137.88-27 139.57-27L139.57-27Q139.89-27 140.26-26.97 140.64-26.93 141.01-26.86 141.37-26.78 141.7-26.67 142.03-26.56 142.25-26.42L142.25-26.42 141.4-16.36Q140.3-16.77 139.08-16.98 137.86-17.19 136.96-17.19L136.96-17.19Q135.71-17.19 134.77-16.88 133.83-16.58 133.17-16.09 132.51-15.6 132.13-15.01 131.76-14.43 131.61-13.87L131.61-13.87 131.61 0 121.06 0ZM159.8 0.71L159.8 0.71Q157.53 0.71 155.46 0.16 153.38-0.39 151.81-1.7 150.23-3 149.29-5.16 148.35-7.32 148.35-10.55L148.35-10.55 148.35-20.29 143.5-20.29 143.5-21.88 154.99-34.38 158.9-34.38 158.9-26.34 166.71-26.34Q166.42-24.88 166.19-23.39 165.96-21.9 165.93-20.29L165.93-20.29 158.9-20.29 158.9-10.64Q158.9-9.77 159.04-8.95 159.17-8.13 159.58-7.51 160-6.88 160.78-6.51 161.56-6.13 162.86-6.13L162.86-6.13Q163.69-6.13 164.69-6.29 165.69-6.45 166.96-6.88L166.96-6.88 167.54-0.56Q166.01 0 164.02 0.35 162.03 0.71 159.8 0.71ZM193.93 0L187.61-26.34 198.84-26.34 202.77-6.37 206.7-26.34 218.17-26.34 222.57-6.37 225.35-26.34 233.7-26.34 228.23 0 214.66 0 211.26-17.04 208.19 0 193.93 0ZM245.44 0.71L245.44 0.71Q243.88 0.71 242.45 0.27 241.02-0.17 239.92-1.07 238.83-1.98 238.18-3.36 237.53-4.74 237.53-6.62L237.53-6.62Q237.53-8.42 238.12-9.75 238.7-11.08 239.69-12.04 240.68-12.99 242.01-13.61 243.34-14.23 244.83-14.59 246.32-14.94 247.9-15.08 249.47-15.21 250.96-15.21L250.96-15.21Q251.98-15.21 252.94-15.16 253.89-15.11 254.72-15.04L254.72-15.04Q254.67-16.58 254.13-17.59 253.6-18.6 252.72-19.2 251.84-19.8 250.67-20.04 249.49-20.29 248.2-20.29L248.2-20.29Q247-20.29 245.75-20.13 244.49-19.97 243.29-19.74 242.1-19.51 241.01-19.24 239.92-18.97 239.09-18.75L239.09-18.75 239.09-25.59Q240.29-25.85 241.67-26.11 243.05-26.37 244.54-26.56 246.03-26.76 247.58-26.88 249.13-27 250.64-27L250.64-27Q252.52-27 254.34-26.77 256.16-26.54 257.78-26 259.41-25.46 260.79-24.56 262.17-23.66 263.15-22.33 264.14-21 264.7-19.19 265.27-17.38 265.27-15.01L265.27-15.01 265.27 0 255.21 0 255.21-4.37Q254.62-3.17 253.57-2.23 252.52-1.29 251.2-0.63 249.88 0.02 248.4 0.37 246.91 0.71 245.44 0.71ZM249.57-5.03L249.57-5.03Q250.25-5.03 251.14-5.41 252.03-5.79 252.83-6.57 253.62-7.35 254.17-8.54 254.72-9.74 254.72-11.4L254.72-11.4 253.91-11.4Q252.74-11.4 251.51-11.16 250.28-10.91 249.25-10.42 248.22-9.94 247.57-9.23 246.91-8.52 246.91-7.59L246.91-7.59Q246.91-6.86 247.15-6.37 247.39-5.88 247.77-5.58 248.15-5.27 248.63-5.15 249.1-5.03 249.57-5.03ZM285.45 0.71L285.45 0.71Q283.18 0.71 281.11 0.16 279.03-0.39 277.46-1.7 275.88-3 274.94-5.16 274-7.32 274-10.55L274-10.55 274-20.29 269.15-20.29 269.15-21.88 280.64-34.38 284.55-34.38 284.55-26.34 292.36-26.34Q292.07-24.88 291.84-23.39 291.61-21.9 291.58-20.29L291.58-20.29 284.55-20.29 284.55-10.64Q284.55-9.77 284.68-8.95 284.82-8.13 285.23-7.51 285.65-6.88 286.43-6.51 287.21-6.13 288.51-6.13L288.51-6.13Q289.34-6.13 290.34-6.29 291.34-6.45 292.61-6.88L292.61-6.88 293.19-0.56Q291.65 0 289.67 0.35 287.68 0.71 285.45 0.71ZM322.46-7.98L322.46-1.05Q320.17-0.29 317.51 0.21 314.85 0.71 311.96 0.71L311.96 0.71Q308.82 0.71 305.96-0.12 303.1-0.95 300.93-2.71 298.76-4.47 297.48-7.17 296.19-9.86 296.19-13.6L296.19-13.6Q296.19-15.72 296.85-17.54 297.51-19.36 298.65-20.85 299.78-22.34 301.31-23.49 302.83-24.63 304.58-25.42 306.33-26.2 308.18-26.6 310.04-27 311.82-27L311.82-27Q314.63-27 316.77-26.38 318.92-25.76 320.35-24.71 321.78-23.66 322.51-22.27 323.24-20.87 323.24-19.31L323.24-19.31Q323.24-17.41 322.6-16.06 321.95-14.72 320.86-13.81 319.78-12.89 318.35-12.37 316.92-11.84 315.33-11.56 313.75-11.28 312.1-11.21 310.45-11.13 308.96-11.13L308.96-11.13Q308.45-11.13 307.97-11.15 307.5-11.16 307.03-11.16L307.03-11.16Q307.23-9.77 307.8-8.81 308.38-7.86 309.24-7.26 310.11-6.67 311.24-6.41 312.38-6.15 313.67-6.15L313.67-6.15Q314.65-6.15 315.76-6.3 316.87-6.45 318.01-6.7 319.14-6.96 320.28-7.29 321.41-7.62 322.46-7.98L322.46-7.98ZM306.81-14.92L306.81-14.92Q307.4-14.94 308.31-14.99 309.23-15.04 310.26-15.16 311.28-15.28 312.31-15.5 313.33-15.72 314.16-16.06 314.99-16.41 315.5-16.92 316.02-17.43 316.02-18.16L316.02-18.16Q316.02-19.41 315.03-20.15 314.04-20.9 312.28-20.9L312.28-20.9Q311.48-20.9 310.55-20.67 309.62-20.43 308.82-19.78 308.01-19.12 307.45-17.94 306.89-16.77 306.81-14.92ZM329.71 0L329.71-26.34 339.75-26.34Q339.7-25.71 339.67-24.94 339.65-24.17 339.65-23.33 339.65-22.49 339.65-21.63 339.65-20.78 339.65-20L339.65-20Q340.14-21.19 340.92-22.45 341.7-23.71 342.76-24.71 343.82-25.71 345.18-26.35 346.53-27 348.22-27L348.22-27Q348.53-27 348.91-26.97 349.29-26.93 349.66-26.86 350.02-26.78 350.35-26.67 350.68-26.56 350.9-26.42L350.9-26.42 350.05-16.36Q348.95-16.77 347.73-16.98 346.51-17.19 345.6-17.19L345.6-17.19Q344.36-17.19 343.42-16.88 342.48-16.58 341.82-16.09 341.16-15.6 340.78-15.01 340.4-14.43 340.26-13.87L340.26-13.87 340.26 0 329.71 0ZM372.7 0L372.7-26.34 383.37-26.34Q383.15-25.63 383-25.04 382.86-24.44 382.78-23.85 382.71-23.27 382.67-22.67 382.64-22.07 382.64-21.39L382.64-21.39Q383.3-22.49 384.35-23.51 385.39-24.54 386.7-25.31 388.01-26.07 389.48-26.54 390.96-27 392.47-27L392.47-27Q393.67-27 394.83-26.66 395.99-26.32 397.04-25.63 398.09-24.95 398.97-23.95 399.85-22.95 400.48-21.61L400.48-21.61Q401.24-22.78 402.45-23.77 403.66-24.76 405.12-25.48 406.59-26.2 408.23-26.6 409.88-27 411.52-27L411.52-27Q414.15-27 416-26.25 417.84-25.49 418.98-24.1 420.11-22.71 420.62-20.75 421.14-18.8 421.14-16.43L421.14-16.43 421.14 0 410.59 0 410.59-14.89Q410.59-15.6 410.43-16.52 410.27-17.43 409.83-18.25 409.39-19.07 408.62-19.63 407.86-20.19 406.61-20.19L406.61-20.19Q405.76-20.19 405-19.78 404.24-19.36 403.66-18.68 403.07-17.99 402.73-17.11 402.39-16.24 402.39-15.31L402.39-15.31 402.39 0 391.84 0 391.84-14.89Q391.84-15.89 391.66-16.85 391.47-17.8 391.03-18.54 390.6-19.29 389.84-19.74 389.08-20.19 387.93-20.19L387.93-20.19Q387.13-20.19 386.29-19.89 385.44-19.58 384.77-19.06 384.1-18.53 383.67-17.8 383.25-17.07 383.25-16.21L383.25-16.21 383.25 0 372.7 0ZM434.88 0.71L434.88 0.71Q433.32 0.71 431.89 0.27 430.46-0.17 429.36-1.07 428.26-1.98 427.62-3.36 426.97-4.74 426.97-6.62L426.97-6.62Q426.97-8.42 427.56-9.75 428.14-11.08 429.13-12.04 430.12-12.99 431.45-13.61 432.78-14.23 434.27-14.59 435.76-14.94 437.33-15.08 438.91-15.21 440.4-15.21L440.4-15.21Q441.42-15.21 442.37-15.16 443.33-15.11 444.16-15.04L444.16-15.04Q444.11-16.58 443.57-17.59 443.03-18.6 442.16-19.2 441.28-19.8 440.1-20.04 438.93-20.29 437.64-20.29L437.64-20.29Q436.44-20.29 435.18-20.13 433.93-19.97 432.73-19.74 431.53-19.51 430.45-19.24 429.36-18.97 428.53-18.75L428.53-18.75 428.53-25.59Q429.73-25.85 431.11-26.11 432.49-26.37 433.98-26.56 435.47-26.76 437.02-26.88 438.57-27 440.08-27L440.08-27Q441.96-27 443.78-26.77 445.6-26.54 447.22-26 448.84-25.46 450.22-24.56 451.6-23.66 452.59-22.33 453.58-21 454.14-19.19 454.7-17.38 454.7-15.01L454.7-15.01 454.7 0 444.65 0 444.65-4.37Q444.06-3.17 443.01-2.23 441.96-1.29 440.64-0.63 439.32 0.02 437.83 0.37 436.34 0.71 434.88 0.71ZM439.01-5.03L439.01-5.03Q439.69-5.03 440.58-5.41 441.47-5.79 442.26-6.57 443.06-7.35 443.61-8.54 444.16-9.74 444.16-11.4L444.16-11.4 443.35-11.4Q442.18-11.4 440.95-11.16 439.71-10.91 438.69-10.42 437.66-9.94 437-9.23 436.34-8.52 436.34-7.59L436.34-7.59Q436.34-6.86 436.59-6.37 436.83-5.88 437.21-5.58 437.59-5.27 438.07-5.15 438.54-5.03 439.01-5.03ZM461.78 0L461.78-26.34 472.33-26.34Q472.18-25.51 472.04-24.21 471.89-22.9 471.89-21.51L471.89-21.51Q472.72-22.75 473.98-23.77 475.23-24.78 476.75-25.5 478.26-26.22 479.96-26.61 481.65-27 483.39-27L483.39-27Q485.29-27 487-26.43 488.71-25.85 490-24.61 491.3-23.36 492.05-21.37 492.81-19.38 492.81-16.55L492.81-16.55 492.81 0 482.26 0 482.26-15.01Q482.26-16.53 481.95-17.53 481.63-18.53 481.07-19.12 480.51-19.7 479.74-19.95 478.97-20.19 478.07-20.19L478.07-20.19Q477.09-20.19 476.14-19.86 475.18-19.53 474.4-18.97 473.62-18.41 473.06-17.65 472.5-16.89 472.33-16.04L472.33-16.04 472.33 0 461.78 0ZM506.51 0.71L506.51 0.71Q504.94 0.71 503.51 0.27 502.09-0.17 500.99-1.07 499.89-1.98 499.24-3.36 498.6-4.74 498.6-6.62L498.6-6.62Q498.6-8.42 499.18-9.75 499.77-11.08 500.76-12.04 501.74-12.99 503.08-13.61 504.41-14.23 505.9-14.59 507.38-14.94 508.96-15.08 510.53-15.21 512.02-15.21L512.02-15.21Q513.05-15.21 514-15.16 514.95-15.11 515.78-15.04L515.78-15.04Q515.73-16.58 515.2-17.59 514.66-18.6 513.78-19.2 512.9-19.8 511.73-20.04 510.56-20.29 509.26-20.29L509.26-20.29Q508.07-20.29 506.81-20.13 505.55-19.97 504.36-19.74 503.16-19.51 502.07-19.24 500.99-18.97 500.16-18.75L500.16-18.75 500.16-25.59Q501.35-25.85 502.73-26.11 504.11-26.37 505.6-26.56 507.09-26.76 508.64-26.88 510.19-27 511.71-27L511.71-27Q513.59-27 515.4-26.77 517.22-26.54 518.85-26 520.47-25.46 521.85-24.56 523.23-23.66 524.22-22.33 525.21-21 525.77-19.19 526.33-17.38 526.33-15.01L526.33-15.01 526.33 0 516.27 0 516.27-4.37Q515.69-3.17 514.64-2.23 513.59-1.29 512.27-0.63 510.95 0.02 509.46 0.37 507.97 0.71 506.51 0.71ZM510.63-5.03L510.63-5.03Q511.32-5.03 512.21-5.41 513.1-5.79 513.89-6.57 514.68-7.35 515.23-8.54 515.78-9.74 515.78-11.4L515.78-11.4 514.98-11.4Q513.81-11.4 512.57-11.16 511.34-10.91 510.31-10.42 509.29-9.94 508.63-9.23 507.97-8.52 507.97-7.59L507.97-7.59Q507.97-6.86 508.21-6.37 508.46-5.88 508.84-5.58 509.22-5.27 509.69-5.15 510.17-5.03 510.63-5.03ZM551.62-4.54L551.62-4.54Q550.59-2.39 548.45-1.2 546.3 0 543.49 0L543.49 0Q540.49 0 538.25-1.12 536.02-2.25 534.55-4.08 533.09-5.91 532.37-8.28 531.65-10.64 531.65-13.13L531.65-13.13Q531.65-15.7 532.39-18.18 533.14-20.65 534.59-22.62 536.04-24.58 538.19-25.79 540.34-27 543.15-27L543.15-27Q544.96-27 546.38-26.59 547.81-26.17 548.91-25.4 550.01-24.63 550.81-23.57 551.62-22.51 552.21-21.19L552.21-21.19Q552.21-21.41 552.16-22.09 552.11-22.78 552.02-23.58 551.94-24.39 551.84-25.16 551.74-25.93 551.64-26.34L551.64-26.34 562.19-26.34 562.19-5.66Q562.19-1.25 561.11 2.01 560.02 5.27 557.99 7.43 555.97 9.59 553.02 10.66 550.08 11.72 546.4 11.72L546.4 11.72Q544.91 11.72 543.75 11.65 542.59 11.57 541.54 11.43 540.49 11.28 539.43 11.06 538.36 10.84 537.09 10.55L537.09 10.55 537.83 4.39Q538.51 4.59 539.38 4.76 540.24 4.93 541.18 5.07 542.12 5.2 543.1 5.29 544.08 5.37 544.96 5.37L544.96 5.37Q547.05 5.37 548.36 4.57 549.67 3.76 550.39 2.39 551.11 1.03 551.36-0.77 551.62-2.56 551.62-4.54ZM541.49-13.11L541.49-13.11Q541.49-11.11 541.93-9.77 542.37-8.42 543.09-7.6 543.81-6.79 544.72-6.43 545.64-6.08 546.59-6.08L546.59-6.08Q547.54-6.08 548.45-6.43 549.35-6.79 550.06-7.6 550.77-8.42 551.19-9.78 551.62-11.13 551.62-13.13L551.62-13.13Q551.62-15.11 551.19-16.47 550.77-17.82 550.06-18.65 549.35-19.48 548.46-19.84 547.57-20.19 546.62-20.19L546.62-20.19Q545.66-20.19 544.75-19.84 543.83-19.48 543.1-18.65 542.37-17.82 541.93-16.47 541.49-15.11 541.49-13.11ZM594.22-7.98L594.22-1.05Q591.93-0.29 589.26 0.21 586.6 0.71 583.72 0.71L583.72 0.71Q580.57 0.71 577.72-0.12 574.86-0.95 572.69-2.71 570.51-4.47 569.23-7.17 567.95-9.86 567.95-13.6L567.95-13.6Q567.95-15.72 568.61-17.54 569.27-19.36 570.4-20.85 571.54-22.34 573.07-23.49 574.59-24.63 576.34-25.42 578.08-26.2 579.94-26.6 581.79-27 583.58-27L583.58-27Q586.38-27 588.53-26.38 590.68-25.76 592.11-24.71 593.54-23.66 594.27-22.27 595-20.87 595-19.31L595-19.31Q595-17.41 594.35-16.06 593.71-14.72 592.62-13.81 591.53-12.89 590.11-12.37 588.68-11.84 587.09-11.56 585.5-11.28 583.86-11.21 582.21-11.13 580.72-11.13L580.72-11.13Q580.21-11.13 579.73-11.15 579.25-11.16 578.79-11.16L578.79-11.16Q578.99-9.77 579.56-8.81 580.13-7.86 581-7.26 581.87-6.67 583-6.41 584.14-6.15 585.43-6.15L585.43-6.15Q586.41-6.15 587.52-6.3 588.63-6.45 589.76-6.7 590.9-6.96 592.04-7.29 593.17-7.62 594.22-7.98L594.22-7.98ZM578.57-14.92L578.57-14.92Q579.16-14.94 580.07-14.99 580.99-15.04 582.01-15.16 583.04-15.28 584.06-15.5 585.09-15.72 585.92-16.06 586.75-16.41 587.26-16.92 587.77-17.43 587.77-18.16L587.77-18.16Q587.77-19.41 586.79-20.15 585.8-20.9 584.04-20.9L584.04-20.9Q583.23-20.9 582.31-20.67 581.38-20.43 580.57-19.78 579.77-19.12 579.21-17.94 578.64-16.77 578.57-14.92ZM601.42 0L601.42-26.34 612.09-26.34Q611.87-25.63 611.72-25.04 611.58-24.44 611.5-23.85 611.43-23.27 611.39-22.67 611.36-22.07 611.36-21.39L611.36-21.39Q612.02-22.49 613.07-23.51 614.12-24.54 615.42-25.31 616.73-26.07 618.2-26.54 619.68-27 621.2-27L621.2-27Q622.39-27 623.55-26.66 624.71-26.32 625.76-25.63 626.81-24.95 627.69-23.95 628.57-22.95 629.2-21.61L629.2-21.61Q629.96-22.78 631.17-23.77 632.38-24.76 633.84-25.48 635.31-26.2 636.95-26.6 638.6-27 640.24-27L640.24-27Q642.87-27 644.72-26.25 646.56-25.49 647.7-24.1 648.83-22.71 649.34-20.75 649.86-18.8 649.86-16.43L649.86-16.43 649.86 0 639.31 0 639.31-14.89Q639.31-15.6 639.15-16.52 638.99-17.43 638.55-18.25 638.11-19.07 637.35-19.63 636.58-20.19 635.33-20.19L635.33-20.19Q634.48-20.19 633.72-19.78 632.96-19.36 632.38-18.68 631.79-17.99 631.45-17.11 631.11-16.24 631.11-15.31L631.11-15.31 631.11 0 620.56 0 620.56-14.89Q620.56-15.89 620.38-16.85 620.19-17.8 619.75-18.54 619.32-19.29 618.56-19.74 617.8-20.19 616.65-20.19L616.65-20.19Q615.85-20.19 615.01-19.89 614.16-19.58 613.49-19.06 612.82-18.53 612.39-17.8 611.97-17.07 611.97-16.21L611.97-16.21 611.97 0 601.42 0ZM681.67-7.98L681.67-1.05Q679.37-0.29 676.71 0.21 674.05 0.71 671.17 0.71L671.17 0.71Q668.02 0.71 665.16-0.12 662.31-0.95 660.13-2.71 657.96-4.47 656.68-7.17 655.4-9.86 655.4-13.6L655.4-13.6Q655.4-15.72 656.06-17.54 656.72-19.36 657.85-20.85 658.99-22.34 660.51-23.49 662.04-24.63 663.78-25.42 665.53-26.2 667.38-26.6 669.24-27 671.02-27L671.02-27Q673.83-27 675.98-26.38 678.13-25.76 679.55-24.71 680.98-23.66 681.72-22.27 682.45-20.87 682.45-19.31L682.45-19.31Q682.45-17.41 681.8-16.06 681.15-14.72 680.07-13.81 678.98-12.89 677.55-12.37 676.12-11.84 674.54-11.56 672.95-11.28 671.3-11.21 669.65-11.13 668.17-11.13L668.17-11.13Q667.65-11.13 667.18-11.15 666.7-11.16 666.24-11.16L666.24-11.16Q666.43-9.77 667.01-8.81 667.58-7.86 668.45-7.26 669.31-6.67 670.45-6.41 671.58-6.15 672.88-6.15L672.88-6.15Q673.85-6.15 674.96-6.3 676.08-6.45 677.21-6.7 678.35-6.96 679.48-7.29 680.62-7.62 681.67-7.98L681.67-7.98ZM666.02-14.92L666.02-14.92Q666.6-14.94 667.52-14.99 668.43-15.04 669.46-15.16 670.48-15.28 671.51-15.5 672.54-15.72 673.37-16.06 674.2-16.41 674.71-16.92 675.22-17.43 675.22-18.16L675.22-18.16Q675.22-19.41 674.23-20.15 673.24-20.9 671.49-20.9L671.49-20.9Q670.68-20.9 669.75-20.67 668.82-20.43 668.02-19.78 667.21-19.12 666.65-17.94 666.09-16.77 666.02-14.92ZM688.91 0L688.91-26.34 699.46-26.34Q699.32-25.51 699.17-24.21 699.02-22.9 699.02-21.51L699.02-21.51Q699.85-22.75 701.11-23.77 702.37-24.78 703.88-25.5 705.39-26.22 707.09-26.61 708.79-27 710.52-27L710.52-27Q712.43-27 714.13-26.43 715.84-25.85 717.14-24.61 718.43-23.36 719.19-21.37 719.95-19.38 719.95-16.55L719.95-16.55 719.95 0 709.4 0 709.4-15.01Q709.4-16.53 709.08-17.53 708.76-18.53 708.2-19.12 707.64-19.7 706.87-19.95 706.1-20.19 705.2-20.19L705.2-20.19Q704.22-20.19 703.27-19.86 702.32-19.53 701.54-18.97 700.76-18.41 700.19-17.65 699.63-16.89 699.46-16.04L699.46-16.04 699.46 0 688.91 0ZM740.4 0.71L740.4 0.71Q738.13 0.71 736.06 0.16 733.98-0.39 732.41-1.7 730.83-3 729.89-5.16 728.95-7.32 728.95-10.55L728.95-10.55 728.95-20.29 724.09-20.29 724.09-21.88 735.59-34.38 739.5-34.38 739.5-26.34 747.31-26.34Q747.02-24.88 746.79-23.39 746.55-21.9 746.53-20.29L746.53-20.29 739.5-20.29 739.5-10.64Q739.5-9.77 739.63-8.95 739.77-8.13 740.18-7.51 740.6-6.88 741.38-6.51 742.16-6.13 743.45-6.13L743.45-6.13Q744.28-6.13 745.28-6.29 746.29-6.45 747.55-6.88L747.55-6.88 748.14-0.56Q746.6 0 744.61 0.35 742.62 0.71 740.4 0.71ZM791.28-25.63L790.91-18.46Q788.47-19.58 786.14-20.2 783.8-20.83 782.05-20.83L782.05-20.83Q780.19-20.83 779.41-20.47 778.63-20.12 778.63-19.24L778.63-19.24Q778.63-18.46 779.78-18.01 780.92-17.55 783.15-16.97L783.15-16.97Q785.37-16.38 787.13-15.67 788.88-14.97 790.12-13.92 791.35-12.87 792-11.4 792.64-9.94 792.64-7.81L792.64-7.81Q792.64-5.91 791.91-4.33 791.18-2.76 789.69-1.64 788.2-0.51 785.93 0.1 783.66 0.71 780.58 0.71L780.58 0.71Q777.85 0.71 775.09 0.31 772.33-0.1 769.52-1.12L769.52-1.12 769.52-8.67Q772.04-7.57 774.58-6.91 777.12-6.25 779.41-6.25L779.41-6.25Q783.54-6.25 783.54-7.96L783.54-7.96Q783.54-8.25 783.34-8.5 783.15-8.74 782.62-8.97 782.1-9.2 781.16-9.46 780.22-9.72 778.75-10.08L778.75-10.08Q776.72-10.57 774.93-11.34 773.14-12.11 771.81-13.22 770.47-14.33 769.71-15.82 768.94-17.31 768.94-19.21L768.94-19.21Q768.94-20.92 769.66-22.36 770.38-23.8 771.83-24.83 773.28-25.85 775.44-26.43 777.6-27 780.46-27L780.46-27Q782.12-27 783.65-26.86 785.17-26.71 786.54-26.5 787.91-26.29 789.09-26.06 790.27-25.83 791.28-25.63L791.28-25.63ZM815.52-9.67L815.52-26.34 826.06-26.34 826.06-3.69Q826.06-0.93 825.5 1.27 824.94 3.47 823.94 5.19 822.94 6.91 821.56 8.14 820.18 9.38 818.52 10.17 816.86 10.96 814.98 11.34 813.1 11.72 811.12 11.72L811.12 11.72Q808.46 11.72 805.77 11.45 803.09 11.18 800.87 10.55L800.87 10.55 801.6 4.39Q804.26 5.03 806.06 5.2 807.85 5.37 808.7 5.37L808.7 5.37Q811.15 5.37 812.6 4.66 814.05 3.96 814.81 2.49L814.81 2.49Q815.17 1.76 815.41 1.05 815.64 0.34 815.78-0.42 815.93-1.17 815.98-1.99 816.03-2.81 816.03-3.81L816.03-3.81Q815.52-2.88 814.64-2.17 813.76-1.46 812.68-0.98 811.61-0.49 810.43-0.24 809.24 0 808.12 0L808.12 0Q806.17 0 804.41-0.6 802.65-1.2 801.29-2.48 799.94-3.76 799.15-5.76 798.35-7.76 798.35-10.55L798.35-10.55 798.35-26.34 807.73-26.34 807.73-10.84Q807.73-9.62 808.08-8.73 808.44-7.84 809.01-7.26 809.58-6.69 810.32-6.41 811.05-6.13 811.81-6.13L811.81-6.13Q812.51-6.13 813.18-6.36 813.86-6.59 814.37-7.04 814.88-7.5 815.2-8.15 815.52-8.81 815.52-9.67L815.52-9.67ZM854.97-25.63L854.6-18.46Q852.16-19.58 849.83-20.2 847.5-20.83 845.74-20.83L845.74-20.83Q843.88-20.83 843.1-20.47 842.32-20.12 842.32-19.24L842.32-19.24Q842.32-18.46 843.47-18.01 844.62-17.55 846.84-16.97L846.84-16.97Q849.06-16.38 850.82-15.67 852.57-14.97 853.81-13.92 855.04-12.87 855.69-11.4 856.33-9.94 856.33-7.81L856.33-7.81Q856.33-5.91 855.6-4.33 854.87-2.76 853.38-1.64 851.89-0.51 849.62 0.1 847.35 0.71 844.27 0.71L844.27 0.71Q841.54 0.71 838.78 0.31 836.02-0.1 833.21-1.12L833.21-1.12 833.21-8.67Q835.73-7.57 838.27-6.91 840.81-6.25 843.1-6.25L843.1-6.25Q847.23-6.25 847.23-7.96L847.23-7.96Q847.23-8.25 847.03-8.5 846.84-8.74 846.31-8.97 845.79-9.2 844.85-9.46 843.91-9.72 842.44-10.08L842.44-10.08Q840.42-10.57 838.62-11.34 836.83-12.11 835.5-13.22 834.17-14.33 833.4-15.82 832.63-17.31 832.63-19.21L832.63-19.21Q832.63-20.92 833.35-22.36 834.07-23.8 835.52-24.83 836.97-25.85 839.13-26.43 841.29-27 844.15-27L844.15-27Q845.81-27 847.34-26.86 848.86-26.71 850.23-26.5 851.6-26.29 852.78-26.06 853.97-25.83 854.97-25.63L854.97-25.63ZM875.42 0.71L875.42 0.71Q873.15 0.71 871.08 0.16 869-0.39 867.43-1.7 865.85-3 864.91-5.16 863.97-7.32 863.97-10.55L863.97-10.55 863.97-20.29 859.11-20.29 859.11-21.88 870.61-34.38 874.52-34.38 874.52-26.34 882.33-26.34Q882.04-24.88 881.81-23.39 881.58-21.9 881.55-20.29L881.55-20.29 874.52-20.29 874.52-10.64Q874.52-9.77 874.65-8.95 874.79-8.13 875.2-7.51 875.62-6.88 876.4-6.51 877.18-6.13 878.48-6.13L878.48-6.13Q879.31-6.13 880.31-6.29 881.31-6.45 882.58-6.88L882.58-6.88 883.16-0.56Q881.62 0 879.63 0.35 877.64 0.71 875.42 0.71ZM912.43-7.98L912.43-1.05Q910.14-0.29 907.48 0.21 904.82 0.71 901.93 0.71L901.93 0.71Q898.79 0.71 895.93-0.12 893.07-0.95 890.9-2.71 888.73-4.47 887.44-7.17 886.16-9.86 886.16-13.6L886.16-13.6Q886.16-15.72 886.82-17.54 887.48-19.36 888.62-20.85 889.75-22.34 891.28-23.49 892.8-24.63 894.55-25.42 896.29-26.2 898.15-26.6 900.01-27 901.79-27L901.79-27Q904.6-27 906.74-26.38 908.89-25.76 910.32-24.71 911.75-23.66 912.48-22.27 913.21-20.87 913.21-19.31L913.21-19.31Q913.21-17.41 912.57-16.06 911.92-14.72 910.83-13.81 909.75-12.89 908.32-12.37 906.89-11.84 905.3-11.56 903.72-11.28 902.07-11.21 900.42-11.13 898.93-11.13L898.93-11.13Q898.42-11.13 897.94-11.15 897.47-11.16 897-11.16L897-11.16Q897.2-9.77 897.77-8.81 898.35-7.86 899.21-7.26 900.08-6.67 901.21-6.41 902.35-6.15 903.64-6.15L903.64-6.15Q904.62-6.15 905.73-6.3 906.84-6.45 907.98-6.7 909.11-6.96 910.25-7.29 911.38-7.62 912.43-7.98L912.43-7.98ZM896.78-14.92L896.78-14.92Q897.37-14.94 898.28-14.99 899.2-15.04 900.23-15.16 901.25-15.28 902.28-15.5 903.3-15.72 904.13-16.06 904.96-16.41 905.47-16.92 905.99-17.43 905.99-18.16L905.99-18.16Q905.99-19.41 905-20.15 904.01-20.9 902.25-20.9L902.25-20.9Q901.45-20.9 900.52-20.67 899.59-20.43 898.79-19.78 897.98-19.12 897.42-17.94 896.86-16.77 896.78-14.92ZM919.63 0L919.63-26.34 930.3-26.34Q930.08-25.63 929.93-25.04 929.79-24.44 929.72-23.85 929.64-23.27 929.61-22.67 929.57-22.07 929.57-21.39L929.57-21.39Q930.23-22.49 931.28-23.51 932.33-24.54 933.63-25.31 934.94-26.07 936.42-26.54 937.89-27 939.41-27L939.41-27Q940.6-27 941.76-26.66 942.92-26.32 943.97-25.63 945.02-24.95 945.9-23.95 946.78-22.95 947.42-21.61L947.42-21.61Q948.17-22.78 949.38-23.77 950.59-24.76 952.05-25.48 953.52-26.2 955.17-26.6 956.81-27 958.45-27L958.45-27Q961.09-27 962.93-26.25 964.77-25.49 965.91-24.1 967.04-22.71 967.56-20.75 968.07-18.8 968.07-16.43L968.07-16.43 968.07 0 957.52 0 957.52-14.89Q957.52-15.6 957.36-16.52 957.21-17.43 956.77-18.25 956.33-19.07 955.56-19.63 954.79-20.19 953.54-20.19L953.54-20.19Q952.69-20.19 951.93-19.78 951.18-19.36 950.59-18.68 950-17.99 949.66-17.11 949.32-16.24 949.32-15.31L949.32-15.31 949.32 0 938.77 0 938.77-14.89Q938.77-15.89 938.59-16.85 938.41-17.8 937.97-18.54 937.53-19.29 936.77-19.74 936.01-20.19 934.87-20.19L934.87-20.19Q934.06-20.19 933.22-19.89 932.38-19.58 931.7-19.06 931.03-18.53 930.61-17.8 930.18-17.07 930.18-16.21L930.18-16.21 930.18 0 919.63 0ZM1004.71-20.19L1004.71 0 994.16 0 994.16-20.19 989.96-20.19 989.96-26.34 994.11-26.34Q994.11-29.35 994.92-31.58 995.73-33.81 997.22-35.3 998.7-36.79 1000.82-37.54 1002.93-38.28 1005.56-38.28L1005.56-38.28Q1007.71-38.28 1009.54-37.82 1011.38-37.35 1012.91-36.72L1012.91-36.72 1012.13-30.44Q1010.72-30.79 1009.78-31.02 1008.84-31.25 1007.96-31.25L1007.96-31.25Q1006.83-31.25 1006.19-30.83 1005.54-30.42 1005.21-29.74 1004.88-29.05 1004.8-28.16 1004.71-27.27 1004.71-26.34L1004.71-26.34 1012.08-26.34Q1011.74-24.73 1011.55-23.24 1011.35-21.75 1011.35-20.19L1011.35-20.19 1004.71-20.19ZM1029.66 0.71L1029.66 0.71Q1026.78 0.71 1024.53 0.17 1022.29-0.37 1020.6-1.32 1018.92-2.27 1017.73-3.58 1016.55-4.88 1015.82-6.42 1015.08-7.96 1014.75-9.67 1014.42-11.38 1014.42-13.13L1014.42-13.13Q1014.42-14.87 1014.75-16.56 1015.08-18.26 1015.82-19.81 1016.55-21.36 1017.72-22.67 1018.89-23.97 1020.59-24.94 1022.29-25.9 1024.53-26.45 1026.78-27 1029.66-27L1029.66-27Q1032.54-27 1034.79-26.45 1037.03-25.9 1038.73-24.94 1040.43-23.97 1041.6-22.67 1042.77-21.36 1043.5-19.81 1044.23-18.26 1044.56-16.56 1044.89-14.87 1044.89-13.13L1044.89-13.13Q1044.89-11.38 1044.56-9.67 1044.23-7.96 1043.5-6.42 1042.77-4.88 1041.59-3.58 1040.4-2.27 1038.72-1.32 1037.03-0.37 1034.79 0.17 1032.54 0.71 1029.66 0.71ZM1024.97-13.13L1024.97-13.13Q1024.97-11.82 1025.22-10.56 1025.46-9.3 1026.01-8.31 1026.56-7.32 1027.45-6.73 1028.34-6.13 1029.66-6.13L1029.66-6.13Q1030.98-6.13 1031.87-6.73 1032.76-7.32 1033.31-8.31 1033.86-9.3 1034.1-10.56 1034.35-11.82 1034.35-13.13L1034.35-13.13Q1034.35-14.45 1034.1-15.71 1033.86-16.97 1033.31-17.96 1032.76-18.95 1031.87-19.56 1030.98-20.17 1029.66-20.17L1029.66-20.17Q1028.34-20.17 1027.45-19.56 1026.56-18.95 1026.01-17.96 1025.46-16.97 1025.22-15.71 1024.97-14.45 1024.97-13.13ZM1050.65 0L1050.65-26.34 1060.69-26.34Q1060.64-25.71 1060.61-24.94 1060.59-24.17 1060.59-23.33 1060.59-22.49 1060.59-21.63 1060.59-20.78 1060.59-20L1060.59-20Q1061.08-21.19 1061.86-22.45 1062.64-23.71 1063.7-24.71 1064.76-25.71 1066.12-26.35 1067.47-27 1069.16-27L1069.16-27Q1069.48-27 1069.85-26.97 1070.23-26.93 1070.6-26.86 1070.96-26.78 1071.29-26.67 1071.62-26.56 1071.84-26.42L1071.84-26.42 1070.99-16.36Q1069.89-16.77 1068.67-16.98 1067.45-17.19 1066.55-17.19L1066.55-17.19Q1065.3-17.19 1064.36-16.88 1063.42-16.58 1062.76-16.09 1062.1-15.6 1061.72-15.01 1061.35-14.43 1061.2-13.87L1061.2-13.87 1061.2 0 1050.65 0ZM1093.84 0L1093.84-26.34 1104.38-26.34 1104.38 0 1093.84 0ZM1099.13-31.76L1099.13-31.76Q1097.74-31.76 1096.52-32.06 1095.3-32.35 1094.41-32.86 1093.52-33.37 1092.99-34.11 1092.47-34.84 1092.47-35.72L1092.47-35.72Q1092.47-36.69 1092.98-37.44 1093.49-38.18 1094.4-38.67 1095.3-39.16 1096.52-39.4 1097.74-39.65 1099.16-39.65L1099.16-39.65Q1100.57-39.65 1101.81-39.4 1103.04-39.16 1103.94-38.67 1104.85-38.18 1105.36-37.44 1105.87-36.69 1105.87-35.72L1105.87-35.72Q1105.87-34.84 1105.35-34.11 1104.82-33.37 1103.92-32.86 1103.02-32.35 1101.78-32.06 1100.55-31.76 1099.13-31.76ZM1112.27 0L1112.27-26.34 1122.3-26.34Q1122.25-25.71 1122.23-24.94 1122.2-24.17 1122.2-23.33 1122.2-22.49 1122.2-21.63 1122.2-20.78 1122.2-20L1122.2-20Q1122.69-21.19 1123.47-22.45 1124.25-23.71 1125.32-24.71 1126.38-25.71 1127.73-26.35 1129.09-27 1130.77-27L1130.77-27Q1131.09-27 1131.47-26.97 1131.85-26.93 1132.21-26.86 1132.58-26.78 1132.91-26.67 1133.24-26.56 1133.46-26.42L1133.46-26.42 1132.6-16.36Q1131.5-16.77 1130.28-16.98 1129.06-17.19 1128.16-17.19L1128.16-17.19Q1126.91-17.19 1125.97-16.88 1125.03-16.58 1124.38-16.09 1123.72-15.6 1123.34-15.01 1122.96-14.43 1122.81-13.87L1122.81-13.87 1122.81 0 1112.27 0ZM1137.9 0L1137.9-26.34 1147.93-26.34Q1147.88-25.71 1147.86-24.94 1147.83-24.17 1147.83-23.33 1147.83-22.49 1147.83-21.63 1147.83-20.78 1147.83-20L1147.83-20Q1148.32-21.19 1149.1-22.45 1149.89-23.71 1150.95-24.71 1152.01-25.71 1153.36-26.35 1154.72-27 1156.4-27L1156.4-27Q1156.72-27 1157.1-26.97 1157.48-26.93 1157.84-26.86 1158.21-26.78 1158.54-26.67 1158.87-26.56 1159.09-26.42L1159.09-26.42 1158.24-16.36Q1157.14-16.77 1155.92-16.98 1154.7-17.19 1153.79-17.19L1153.79-17.19Q1152.55-17.19 1151.61-16.88 1150.67-16.58 1150.01-16.09 1149.35-15.6 1148.97-15.01 1148.59-14.43 1148.45-13.87L1148.45-13.87 1148.45 0 1137.9 0ZM1163.68 0L1163.68-26.34 1174.22-26.34 1174.22 0 1163.68 0ZM1168.97-31.76L1168.97-31.76Q1167.58-31.76 1166.36-32.06 1165.14-32.35 1164.25-32.86 1163.36-33.37 1162.83-34.11 1162.31-34.84 1162.31-35.72L1162.31-35.72Q1162.31-36.69 1162.82-37.44 1163.34-38.18 1164.24-38.67 1165.14-39.16 1166.36-39.4 1167.58-39.65 1169-39.65L1169-39.65Q1170.42-39.65 1171.65-39.4 1172.88-39.16 1173.78-38.67 1174.69-38.18 1175.2-37.44 1175.71-36.69 1175.71-35.72L1175.71-35.72Q1175.71-34.84 1175.19-34.11 1174.66-33.37 1173.76-32.86 1172.86-32.35 1171.62-32.06 1170.39-31.76 1168.97-31.76ZM1200.32-4.54L1200.32-4.54Q1199.29-2.39 1197.15-1.2 1195 0 1192.19 0L1192.19 0Q1189.19 0 1186.95-1.12 1184.72-2.25 1183.25-4.08 1181.79-5.91 1181.07-8.28 1180.35-10.64 1180.35-13.13L1180.35-13.13Q1180.35-15.7 1181.09-18.18 1181.84-20.65 1183.29-22.62 1184.74-24.58 1186.89-25.79 1189.04-27 1191.85-27L1191.85-27Q1193.65-27 1195.08-26.59 1196.51-26.17 1197.61-25.4 1198.71-24.63 1199.51-23.57 1200.32-22.51 1200.91-21.19L1200.91-21.19Q1200.91-21.41 1200.86-22.09 1200.81-22.78 1200.72-23.58 1200.64-24.39 1200.54-25.16 1200.44-25.93 1200.34-26.34L1200.34-26.34 1210.89-26.34 1210.89-5.66Q1210.89-1.25 1209.8 2.01 1208.72 5.27 1206.69 7.43 1204.67 9.59 1201.72 10.66 1198.78 11.72 1195.1 11.72L1195.1 11.72Q1193.61 11.72 1192.45 11.65 1191.29 11.57 1190.24 11.43 1189.19 11.28 1188.13 11.06 1187.06 10.84 1185.79 10.55L1185.79 10.55 1186.53 4.39Q1187.21 4.59 1188.08 4.76 1188.94 4.93 1189.88 5.07 1190.82 5.2 1191.8 5.29 1192.78 5.37 1193.65 5.37L1193.65 5.37Q1195.75 5.37 1197.06 4.57 1198.37 3.76 1199.09 2.39 1199.81 1.03 1200.06-0.77 1200.32-2.56 1200.32-4.54ZM1190.19-13.11L1190.19-13.11Q1190.19-11.11 1190.63-9.77 1191.07-8.42 1191.79-7.6 1192.51-6.79 1193.42-6.43 1194.34-6.08 1195.29-6.08L1195.29-6.08Q1196.24-6.08 1197.15-6.43 1198.05-6.79 1198.76-7.6 1199.47-8.42 1199.89-9.78 1200.32-11.13 1200.32-13.13L1200.32-13.13Q1200.32-15.11 1199.89-16.47 1199.47-17.82 1198.76-18.65 1198.05-19.48 1197.16-19.84 1196.27-20.19 1195.32-20.19L1195.32-20.19Q1194.36-20.19 1193.45-19.84 1192.53-19.48 1191.8-18.65 1191.07-17.82 1190.63-16.47 1190.19-15.11 1190.19-13.11ZM1224.85 0.71L1224.85 0.71Q1223.29 0.71 1221.86 0.27 1220.43-0.17 1219.34-1.07 1218.24-1.98 1217.59-3.36 1216.94-4.74 1216.94-6.62L1216.94-6.62Q1216.94-8.42 1217.53-9.75 1218.12-11.08 1219.1-12.04 1220.09-12.99 1221.42-13.61 1222.75-14.23 1224.24-14.59 1225.73-14.94 1227.31-15.08 1228.88-15.21 1230.37-15.21L1230.37-15.21Q1231.4-15.21 1232.35-15.16 1233.3-15.11 1234.13-15.04L1234.13-15.04Q1234.08-16.58 1233.55-17.59 1233.01-18.6 1232.13-19.2 1231.25-19.8 1230.08-20.04 1228.91-20.29 1227.61-20.29L1227.61-20.29Q1226.42-20.29 1225.16-20.13 1223.9-19.97 1222.71-19.74 1221.51-19.51 1220.42-19.24 1219.34-18.97 1218.51-18.75L1218.51-18.75 1218.51-25.59Q1219.7-25.85 1221.08-26.11 1222.46-26.37 1223.95-26.56 1225.44-26.76 1226.99-26.88 1228.54-27 1230.05-27L1230.05-27Q1231.93-27 1233.75-26.77 1235.57-26.54 1237.19-26 1238.82-25.46 1240.2-24.56 1241.58-23.66 1242.57-22.33 1243.55-21 1244.12-19.19 1244.68-17.38 1244.68-15.01L1244.68-15.01 1244.68 0 1234.62 0 1234.62-4.37Q1234.03-3.17 1232.98-2.23 1231.93-1.29 1230.62-0.63 1229.3 0.02 1227.81 0.37 1226.32 0.71 1224.85 0.71ZM1228.98-5.03L1228.98-5.03Q1229.66-5.03 1230.55-5.41 1231.45-5.79 1232.24-6.57 1233.03-7.35 1233.58-8.54 1234.13-9.74 1234.13-11.4L1234.13-11.4 1233.33-11.4Q1232.15-11.4 1230.92-11.16 1229.69-10.91 1228.66-10.42 1227.64-9.94 1226.98-9.23 1226.32-8.52 1226.32-7.59L1226.32-7.59Q1226.32-6.86 1226.56-6.37 1226.81-5.88 1227.19-5.58 1227.56-5.27 1228.04-5.15 1228.52-5.03 1228.98-5.03ZM1264.87 0.71L1264.87 0.71Q1262.6 0.71 1260.52 0.16 1258.44-0.39 1256.87-1.7 1255.3-3 1254.36-5.16 1253.42-7.32 1253.42-10.55L1253.42-10.55 1253.42-20.29 1248.56-20.29 1248.56-21.88 1260.06-34.38 1263.96-34.38 1263.96-26.34 1271.77-26.34Q1271.48-24.88 1271.25-23.39 1271.02-21.9 1270.99-20.29L1270.99-20.29 1263.96-20.29 1263.96-10.64Q1263.96-9.77 1264.1-8.95 1264.23-8.13 1264.65-7.51 1265.06-6.88 1265.84-6.51 1266.62-6.13 1267.92-6.13L1267.92-6.13Q1268.75-6.13 1269.75-6.29 1270.75-6.45 1272.02-6.88L1272.02-6.88 1272.61-0.56Q1271.07 0 1269.08 0.35 1267.09 0.71 1264.87 0.71ZM1277.61 0L1277.61-26.34 1288.15-26.34 1288.15 0 1277.61 0ZM1282.91-31.76L1282.91-31.76Q1281.51-31.76 1280.29-32.06 1279.07-32.35 1278.18-32.86 1277.29-33.37 1276.77-34.11 1276.24-34.84 1276.24-35.72L1276.24-35.72Q1276.24-36.69 1276.75-37.44 1277.27-38.18 1278.17-38.67 1279.07-39.16 1280.29-39.4 1281.51-39.65 1282.93-39.65L1282.93-39.65Q1284.35-39.65 1285.58-39.4 1286.81-39.16 1287.71-38.67 1288.62-38.18 1289.13-37.44 1289.64-36.69 1289.64-35.72L1289.64-35.72Q1289.64-34.84 1289.12-34.11 1288.59-33.37 1287.69-32.86 1286.79-32.35 1285.55-32.06 1284.32-31.76 1282.91-31.76ZM1309.42 0.71L1309.42 0.71Q1306.54 0.71 1304.29 0.17 1302.04-0.37 1300.36-1.32 1298.67-2.27 1297.49-3.58 1296.31-4.88 1295.57-6.42 1294.84-7.96 1294.51-9.67 1294.18-11.38 1294.18-13.13L1294.18-13.13Q1294.18-14.87 1294.51-16.56 1294.84-18.26 1295.57-19.81 1296.31-21.36 1297.48-22.67 1298.65-23.97 1300.35-24.94 1302.04-25.9 1304.29-26.45 1306.54-27 1309.42-27L1309.42-27Q1312.3-27 1314.54-26.45 1316.79-25.9 1318.49-24.94 1320.18-23.97 1321.35-22.67 1322.53-21.36 1323.26-19.81 1323.99-18.26 1324.32-16.56 1324.65-14.87 1324.65-13.13L1324.65-13.13Q1324.65-11.38 1324.32-9.67 1323.99-7.96 1323.26-6.42 1322.53-4.88 1321.34-3.58 1320.16-2.27 1318.47-1.32 1316.79-0.37 1314.54 0.17 1312.3 0.71 1309.42 0.71ZM1304.73-13.13L1304.73-13.13Q1304.73-11.82 1304.97-10.56 1305.22-9.3 1305.77-8.31 1306.32-7.32 1307.21-6.73 1308.1-6.13 1309.42-6.13L1309.42-6.13Q1310.73-6.13 1311.63-6.73 1312.52-7.32 1313.07-8.31 1313.62-9.3 1313.86-10.56 1314.1-11.82 1314.1-13.13L1314.1-13.13Q1314.1-14.45 1313.86-15.71 1313.62-16.97 1313.07-17.96 1312.52-18.95 1311.63-19.56 1310.73-20.17 1309.42-20.17L1309.42-20.17Q1308.1-20.17 1307.21-19.56 1306.32-18.95 1305.77-17.96 1305.22-16.97 1304.97-15.71 1304.73-14.45 1304.73-13.13ZM1330.41 0L1330.41-26.34 1340.96-26.34Q1340.81-25.51 1340.66-24.21 1340.52-22.9 1340.52-21.51L1340.52-21.51Q1341.35-22.75 1342.6-23.77 1343.86-24.78 1345.38-25.5 1346.89-26.22 1348.59-26.61 1350.28-27 1352.02-27L1352.02-27Q1353.92-27 1355.63-26.43 1357.34-25.85 1358.63-24.61 1359.93-23.36 1360.68-21.37 1361.44-19.38 1361.44-16.55L1361.44-16.55 1361.44 0 1350.89 0 1350.89-15.01Q1350.89-16.53 1350.58-17.53 1350.26-18.53 1349.7-19.12 1349.14-19.7 1348.37-19.95 1347.6-20.19 1346.69-20.19L1346.69-20.19Q1345.72-20.19 1344.77-19.86 1343.81-19.53 1343.03-18.97 1342.25-18.41 1341.69-17.65 1341.13-16.89 1340.96-16.04L1340.96-16.04 1340.96 0 1330.41 0Z" opacity="1" transform="matrix(1,0,0,1,0,0)" fill="#3aa93f" class="slogan-text-1" data-fill-palette-color="secondary" id="text-1"></path></svg></g></svg></g></svg></g></svg></g><g transform="matrix(1,0,0,1,124.7524696506915,0)"><svg viewBox="0 0 146.015060698617 147.67432275201037" height="147.67432275201037" width="146.015060698617"><g><svg xmlns="http://www.w3.org/2000/svg" xmlns:xlink="http://www.w3.org/1999/xlink" version="1.1" x="0" y="0" viewBox="6 5.5 88 89" style="enable-background:new 0 0 100 100;" xml:space="preserve" height="147.67432275201037" width="146.015060698617" class="icon-icon-0" data-fill-palette-color="accent" id="icon-0"><path d="M92 70.5H73V64.41C84.75 63.39 94 53.51 94 41.5 94 40.4 93.1 39.5 92 39.5 82.65 39.5 74.59 45.11 71 53.14 67.41 45.11 59.35 39.5 50 39.5S32.59 45.11 29 53.14C25.41 45.11 17.35 39.5 8 39.5 6.9 39.5 6 40.4 6 41.5 6 53.51 15.25 63.39 27 64.41V70.5H8C6.9 70.5 6 71.4 6 72.5V92.5C6 93.6 6.9 94.5 8 94.5H92C93.1 94.5 94 93.6 94 92.5V72.5C94 71.4 93.1 70.5 92 70.5M89.88 43.62C88.9 52.41 81.9 59.41 73.11 60.39 74.1 51.59 81.09 44.6 89.88 43.62M68.88 60.38C60.09 59.4 53.09 52.4 52.11 43.61 60.91 44.6 67.9 51.59 68.88 60.38M47.88 43.62C46.9 52.41 39.9 59.41 31.11 60.39 32.1 51.59 39.09 44.6 47.88 43.62M10.12 43.62C18.91 44.6 25.91 51.6 26.89 60.39 18.09 59.4 11.1 52.41 10.12 43.62M31 64.41C39.49 63.67 46.67 58.31 50 50.87 53.33 58.32 60.51 63.68 69 64.41V70.5H31zM10 74.5H90V80.5H10zM90 90.5H10V84.5H90zM50 33.5C57.72 33.5 64 27.22 64 19.5S57.72 5.5 50 5.5 36 11.78 36 19.5 42.28 33.5 50 33.5M50 9.5C55.51 9.5 60 13.99 60 19.5S55.51 29.5 50 29.5 40 25.01 40 19.5 44.49 9.5 50 9.5" fill="#2bb146" data-fill-palette-color="accent"></path></svg></g></svg></g><g></g></svg></g><defs></defs></svg><rect width="395.52" height="266.15374008947356" fill="none" stroke="none" visibility="hidden"></rect></g></svg></g></svg>